<svg xmlns="http://www.w3.org/2000/svg" viewBox="0 0 64 64" aria-hidden="true">
  <path fill="#fff" d="M50.6 15.2A43 43 0 0 0 39.9 12l-.5 1a29 29 0 0 1 9.4 4.7 31.4 31.4 0 0 0-33.6 0 29 29 0 0 1 9.4-4.7l-.5-1a43 43 0 0 0-10.7 3.2C6.6 25.2 5.5 35 6.3 44.6A43.7 43.7 0 0 0 19.4 51l2.7-4.3a22.5 22.5 0 0 1-4.2-2c.4-.3.7-.5 1-.8a30.3 30.3 0 0 0 26.2 0l1 .8a22.5 22.5 0 0 1-4.2 2l2.7 4.3a43.7 43.7 0 0 0 13-6.4c1-11.1-1.8-20.8-7-29.4ZM24.5 38.6c-2.6 0-4.7-2.4-4.7-5.4s2-5.4 4.7-5.4c2.6 0 4.8 2.5 4.7 5.4 0 3-2 5.4-4.7 5.4Zm15 0c-2.6 0-4.7-2.4-4.7-5.4s2.1-5.4 4.7-5.4c2.7 0 4.8 2.5 4.8 5.4 0 3-2.1 5.4-4.8 5.4Z"/>
</svg>
