<svg xmlns="http://www.w3.org/2000/svg" viewBox="0 0 64 64" aria-hidden="true">
  <path fill="#fff" d="M32 7.5A24.4 24.4 0 0 0 10.8 44l-3.1 11.4 11.7-3A24.4 24.4 0 1 0 32 7.5Zm0 4.4A20 20 0 0 1 49.3 42a20 20 0 0 1-27.9 6.2l-.8-.5-6.9 1.8 1.8-6.7-.5-.8A20 20 0 0 1 32 11.9Zm-8.4 9.9c-.5 0-1.3.2-2 1-1 1-2.6 2.5-2.6 6s2.7 7 3 7.4c.4.5 5.2 8.3 12.8 11.3 6.3 2.5 7.6 2 9 1.8 1.3-.2 4.4-1.8 5-3.5.6-1.7.6-3.2.4-3.5-.2-.3-.7-.5-1.5-.9l-5.1-2.5c-.7-.3-1.3-.5-1.9.4-.5.8-2.1 2.5-2.6 3-.5.5-1 .6-1.8.2-.8-.4-3.4-1.2-6.4-3.9a24 24 0 0 1-4.4-5.4c-.5-.8 0-1.2.4-1.6l1.2-1.4c.4-.5.5-.8.8-1.3.2-.5.1-1-.1-1.4l-2.4-5.8c-.6-1.4-1.2-1.2-1.8-1.2Z"/>
</svg>
